<svg xmlns="http://www.w3.org/2000/svg" viewBox="0 0 64 64" role="img" aria-label="Favicon">
  <defs>
    <linearGradient id="bg" x1="0%" y1="0%" x2="100%" y2="100%">
      <stop offset="0%" stop-color="#5eb3f6"/>
      <stop offset="100%" stop-color="#2dd4bf"/>
    </linearGradient>
    <linearGradient id="shieldFill" x1="0%" y1="0%" x2="100%" y2="100%">
      <stop offset="0%" stop-color="#60a5fa"/>
      <stop offset="100%" stop-color="#2563eb"/>
    </linearGradient>
  </defs>
  <rect width="64" height="64" rx="12" fill="url(#bg)"/>
  <!-- Shield with white border -->
  <path
    d="M32 10c8 3.2 12.8 5.2 16 6.4v14.4c0 11.2-8 21.6-16 25.6-8-4-16-14.4-16-25.6V16.4C19.2 15.2 24 13.2 32 10z"
    fill="none"
    stroke="white"
    stroke-width="2.5"
    stroke-linejoin="round"
  />
  <path
    d="M32 10c8 3.2 12.8 5.2 16 6.4v14.4c0 11.2-8 21.6-16 25.6-8-4-16-14.4-16-25.6V16.4C19.2 15.2 24 13.2 32 10z"
    fill="url(#shieldFill)"
  />
  <!-- White checkmark -->
  <path
    d="M22 32l8 8 18-20"
    fill="none"
    stroke="white"
    stroke-width="4"
    stroke-linecap="round"
    stroke-linejoin="round"
  />
</svg>
